<svg width="101" height="101" viewBox="0 0 101 101" fill="none" xmlns="http://www.w3.org/2000/svg">
<path d="M100.914 50.7266C100.914 59.5025 98.604 68.1239 94.2164 75.7243C89.8288 83.3247 83.5181 89.6364 75.9184 94.0252C68.3186 98.414 59.6976 100.725 50.9217 100.727C42.1457 100.728 33.524 98.4194 25.9229 94.0331L34.5619 79.0627C39.5354 81.9327 45.1767 83.4432 50.919 83.4423C56.6612 83.4414 62.302 81.9292 67.2747 79.0575C72.2473 76.1859 76.3765 72.056 79.2474 67.083C82.1182 62.1099 83.6296 56.4688 83.6296 50.7266H100.914Z" fill="url(#paint0_linear)"/>
<path d="M25.5782 7.62081C33.1441 3.17393 41.7471 0.796726 50.5228 0.728092C59.2985 0.659457 67.9376 2.90181 75.5721 7.22981C83.2066 11.5578 89.5675 17.819 94.0156 25.3842C98.4637 32.9493 100.842 41.552 100.912 50.3277L83.6285 50.4656C83.5827 44.7235 82.0264 39.0947 79.116 34.1446C76.2055 29.1946 72.0435 25.0978 67.0481 22.266C62.0528 19.4341 56.4 17.9669 50.658 18.0118C44.9159 18.0567 39.2868 19.6121 34.3363 22.5218L25.5782 7.62081Z" fill="url(#paint1_linear)"/>
<path d="M26.3956 94.3024C18.7472 89.999 12.3662 83.7583 7.89378 76.2075C3.4214 68.6566 1.01519 60.0617 0.916951 51.2863C0.818715 42.5108 3.03191 33.8642 7.33414 26.2151C11.6364 18.566 17.8761 12.1841 25.4262 7.7105L34.2369 22.5805C29.2967 25.5076 25.214 29.6834 22.399 34.6883C19.584 39.6932 18.1358 45.3509 18.2001 51.0928C18.2644 56.8347 19.8388 62.4585 22.7652 67.3991C25.6915 72.3397 29.8667 76.4231 34.8711 79.2389L26.3956 94.3024Z" fill="url(#paint2_linear)"/>
<defs>
<linearGradient id="paint0_linear" x1="32.6401" y1="89.7248" x2="95.2685" y2="53.8783" gradientUnits="userSpaceOnUse">
<stop stop-color="#FF8B71"/>
<stop offset="0.704" stop-color="#C33F50"/>
<stop offset="1" stop-color="#A81E41"/>
</linearGradient>
<linearGradient id="paint1_linear" x1="92.7963" y1="50.7266" x2="32.6401" y2="11.4393" gradientUnits="userSpaceOnUse">
<stop stop-color="#FF8B71"/>
<stop offset="0.704" stop-color="#C33F50"/>
<stop offset="1" stop-color="#A81E41"/>
</linearGradient>
<linearGradient id="paint2_linear" x1="27.2837" y1="13.0874" x2="28.5198" y2="86.8406" gradientUnits="userSpaceOnUse">
<stop stop-color="#FF8B71"/>
<stop offset="0.704" stop-color="#C33F50"/>
<stop offset="1" stop-color="#A81E41"/>
</linearGradient>
</defs>
</svg>
