<svg width="1316" height="699" viewBox="0 0 1316 699" fill="none" xmlns="http://www.w3.org/2000/svg">
<mask id="mask0" mask-type="alpha" maskUnits="userSpaceOnUse" x="0" y="0" width="1210" height="699">
<path d="M605.084 698.812L0.764648 349.707L605.108 0.695312L1209.3 349.632L605.084 698.812Z" fill="black"/>
</mask>
<g mask="url(#mask0)">
<g opacity="0.95">
<g opacity="0.95">
<g opacity="0.95" filter="url(#filter0_i)">
<path d="M-757.018 787.564L759.426 -88.3789" stroke="black" stroke-miterlimit="10"/>
</g>
<g opacity="0.95" filter="url(#filter1_i)">
<path d="M-622.841 787.564L893.603 -88.3794" stroke="black" stroke-miterlimit="10"/>
</g>
<g opacity="0.95" filter="url(#filter2_i)">
<path d="M-488.667 787.564L1027.78 -88.3794" stroke="black" stroke-miterlimit="10"/>
</g>
<g opacity="0.95" filter="url(#filter3_i)">
<path d="M-354.488 787.564L1161.96 -88.3794" stroke="black" stroke-miterlimit="10"/>
</g>
<g opacity="0.95" filter="url(#filter4_i)">
<path d="M-220.314 787.564L1296.13 -88.3794" stroke="black" stroke-miterlimit="10"/>
</g>
<g opacity="0.95" filter="url(#filter5_i)">
<path d="M-86.1367 787.564L1430.31 -88.3794" stroke="black" stroke-miterlimit="10"/>
</g>
<g opacity="0.95" filter="url(#filter6_i)">
<path d="M48.0376 787.564L1564.48 -88.3794" stroke="black" stroke-miterlimit="10"/>
</g>
<g opacity="0.95" filter="url(#filter7_i)">
<path d="M182.216 787.564L1698.66 -88.3794" stroke="black" stroke-miterlimit="10"/>
</g>
<g opacity="0.95" filter="url(#filter8_i)">
<path d="M316.391 787.564L1832.84 -88.3794" stroke="black" stroke-miterlimit="10"/>
</g>
<g opacity="0.95" filter="url(#filter9_i)">
<path d="M450.568 787.564L1967.01 -88.3794" stroke="black" stroke-miterlimit="10"/>
</g>
</g>
<g opacity="0.95">
<path opacity="0.95" d="M1967.01 787.564L450.568 -88.3794" stroke="black" stroke-miterlimit="10"/>
<path opacity="0.95" d="M1832.84 787.564L316.391 -88.3794" stroke="black" stroke-miterlimit="10"/>
<path opacity="0.95" d="M1698.66 787.564L182.216 -88.3794" stroke="black" stroke-miterlimit="10"/>
<path opacity="0.95" d="M1564.48 787.564L48.0376 -88.3794" stroke="black" stroke-miterlimit="10"/>
<path opacity="0.95" d="M1430.31 787.564L-86.1367 -88.3794" stroke="black" stroke-miterlimit="10"/>
<path opacity="0.95" d="M1296.13 787.564L-220.314 -88.3794" stroke="black" stroke-miterlimit="10"/>
<path opacity="0.95" d="M1161.96 787.564L-354.488 -88.3794" stroke="black" stroke-miterlimit="10"/>
<path opacity="0.95" d="M1027.78 787.564L-488.667 -88.3794" stroke="black" stroke-miterlimit="10"/>
<path opacity="0.95" d="M893.603 787.564L-622.841 -88.3794" stroke="black" stroke-miterlimit="10"/>
<path opacity="0.95" d="M759.426 787.564L-757.018 -88.3789" stroke="black" stroke-miterlimit="10"/>
</g>
</g>
</g>
<g filter="url(#filter10_i)">
<path d="M331.445 238.837C327.041 236.29 327.052 232.119 331.472 229.57C335.891 227.02 343.084 227.022 347.458 229.57C351.832 232.117 351.822 236.287 347.431 238.837C343.044 241.384 335.849 241.384 331.445 238.837Z" fill="black"/>
<path d="M331.445 160.229C327.041 157.682 327.052 153.511 331.472 150.961C335.891 148.411 343.084 148.414 347.458 150.961C351.832 153.508 351.822 157.679 347.431 160.229C343.044 162.776 335.849 162.776 331.445 160.229Z" fill="black"/>
<path d="M129.933 428.768C125.529 426.221 125.54 422.051 129.959 419.501C134.379 416.951 141.571 416.954 145.946 419.501C150.32 422.048 150.309 426.218 145.919 428.768C141.529 431.318 134.336 431.316 129.933 428.768Z" fill="black"/>
<path d="M197.537 469.143C193.133 466.596 193.144 462.426 197.564 459.876C201.983 457.326 209.176 457.329 213.55 459.876C217.924 462.423 217.913 466.593 213.523 469.143C209.133 471.693 201.94 471.691 197.537 469.143Z" fill="black"/>
<path d="M393.777 354.592C389.374 352.044 389.384 347.874 393.804 345.324C398.224 342.774 405.416 342.777 409.79 345.324C414.165 347.871 414.154 352.042 409.764 354.592C405.373 357.141 398.181 357.139 393.777 354.592Z" fill="black"/>
<path d="M331.445 392.94C327.041 390.393 327.052 386.222 331.472 383.672C335.891 381.122 343.084 381.125 347.458 383.672C351.832 386.219 351.822 390.39 347.431 392.94C343.041 395.49 335.849 395.487 331.445 392.94Z" fill="black"/>
<path d="M65.5512 316.081C61.1476 313.534 61.1583 309.363 65.5779 306.813C69.9975 304.263 77.19 304.266 81.5643 306.813C85.9385 309.36 85.9278 313.531 81.5376 316.081C77.1473 318.631 69.9548 318.631 65.5512 316.081Z" fill="black"/>
<path d="M198.299 314.821C193.895 312.273 193.906 308.103 198.325 305.553C202.745 303.003 209.938 303.006 214.312 305.553C218.686 308.1 218.675 312.271 214.285 314.821C209.895 317.37 202.702 317.368 198.299 314.821Z" fill="black"/>
<path d="M198.299 392.94C193.895 390.393 193.906 386.222 198.325 383.672C202.745 381.122 209.938 381.125 214.312 383.672C218.686 386.219 218.675 390.39 214.285 392.94C209.895 395.49 202.702 395.487 198.299 392.94Z" fill="black"/>
<path d="M998.017 238.838C993.613 236.291 993.624 232.12 998.044 229.571C1002.46 227.023 1009.66 227.023 1014.03 229.571C1018.4 232.118 1018.39 236.288 1014 238.838C1009.61 241.385 1002.42 241.385 998.017 238.838Z" fill="black"/>
<path d="M998.017 314.821C993.613 312.273 993.624 308.103 998.044 305.553C1002.46 303.006 1009.66 303.006 1014.03 305.553C1018.4 308.1 1018.39 312.271 1014 314.821C1009.61 317.368 1002.42 317.368 998.017 314.821Z" fill="black"/>
<path d="M998.017 392.94C993.613 390.393 993.624 386.222 998.044 383.672C1002.46 381.125 1009.66 381.125 1014.03 383.672C1018.4 386.219 1018.39 390.39 1014 392.94C1009.61 395.487 1002.42 395.487 998.017 392.94Z" fill="black"/>
<path d="M799.404 582.755C795 580.208 795.011 576.037 799.43 573.488C803.847 570.94 811.043 570.94 815.417 573.488C819.791 576.035 819.78 580.205 815.39 582.755C811 585.302 803.807 585.302 799.404 582.755Z" fill="black"/>
<path d="M331.445 468.923C327.041 466.376 327.052 462.206 331.472 459.658C335.889 457.111 343.084 457.111 347.458 459.658C351.832 462.206 351.822 466.376 347.431 468.923C343.044 471.47 335.849 471.47 331.445 468.923Z" fill="black"/>
<path d="M331.445 544.106C327.041 541.559 327.052 537.388 331.472 534.839C335.889 532.291 343.084 532.291 347.458 534.839C351.832 537.386 351.822 541.556 347.431 544.106C343.044 546.653 335.849 546.653 331.445 544.106Z" fill="black"/>
<path d="M464.591 392.94C460.187 390.393 460.198 386.222 464.617 383.672C469.034 381.125 476.229 381.125 480.604 383.672C484.978 386.219 484.967 390.39 480.577 392.94C476.187 395.49 468.994 395.487 464.591 392.94Z" fill="black"/>
<path d="M464.591 239.099C460.187 236.552 460.198 232.382 464.617 229.832C469.034 227.285 476.229 227.285 480.604 229.832C484.978 232.379 484.967 236.55 480.577 239.099C476.187 241.649 468.994 241.647 464.591 239.099Z" fill="black"/>
<path d="M464.591 160.491C460.187 157.944 460.198 153.773 464.617 151.223C469.034 148.676 476.229 148.676 480.604 151.223C484.978 153.771 484.967 157.941 480.577 160.491C476.187 163.041 468.994 163.038 464.591 160.491Z" fill="black"/>
<path d="M464.591 469.142C460.187 466.595 460.198 462.425 464.617 459.875C469.034 457.328 476.229 457.328 480.604 459.875C484.978 462.422 484.967 466.592 480.577 469.142C476.187 471.692 468.994 471.69 464.591 469.142Z" fill="black"/>
<path d="M598.468 544.258C594.065 541.711 594.076 537.54 598.495 534.99C602.912 532.443 610.107 532.443 614.481 534.99C618.856 537.538 618.845 541.708 614.455 544.258C610.065 546.808 602.872 546.805 598.468 544.258Z" fill="black"/>
<path d="M464.591 544.106C460.187 541.559 460.198 537.388 464.617 534.839C469.034 532.291 476.229 532.291 480.604 534.839C484.978 537.386 484.967 541.556 480.577 544.106C476.189 546.653 468.994 546.653 464.591 544.106Z" fill="black"/>
<path d="M598.676 238.838C594.273 236.291 594.283 232.12 598.703 229.571C603.12 227.023 610.315 227.023 614.689 229.571C619.063 232.118 619.053 236.288 614.662 238.838C610.275 241.385 603.08 241.385 598.676 238.838Z" fill="black"/>
<path d="M598.676 314.821C594.273 312.273 594.283 308.103 598.703 305.553C603.12 303.006 610.315 303.006 614.689 305.553C619.063 308.1 619.053 312.271 614.662 314.821C610.275 317.368 603.08 317.368 598.676 314.821Z" fill="black"/>
<path d="M598.676 468.923C594.273 466.376 594.283 462.206 598.703 459.658C603.12 457.111 610.315 457.111 614.689 459.658C619.063 462.206 619.053 466.376 614.662 468.923C610.275 471.47 603.08 471.47 598.676 468.923Z" fill="black"/>
<path d="M598.676 161.915C594.273 159.368 594.283 155.197 598.703 152.647C603.12 150.1 610.315 150.1 614.689 152.647C619.063 155.194 619.053 159.365 614.662 161.915C610.275 164.465 603.08 164.465 598.676 161.915Z" fill="black"/>
<path d="M801.282 428.768C796.878 426.221 796.889 422.051 801.308 419.501C805.728 416.951 812.92 416.954 817.295 419.501C821.669 422.048 821.658 426.219 817.268 428.768C812.878 431.316 805.685 431.316 801.282 428.768Z" fill="black"/>
<path d="M732.761 392.94C728.358 390.393 728.368 386.222 732.788 383.672C737.207 381.122 744.4 381.125 748.774 383.672C753.148 386.219 753.138 390.39 748.747 392.94C744.357 395.487 737.165 395.487 732.761 392.94Z" fill="black"/>
<path d="M732.761 468.923C728.358 466.376 728.368 462.206 732.788 459.658C737.205 457.111 744.4 457.111 748.774 459.658C753.148 462.206 753.138 466.376 748.747 468.923C744.357 471.47 737.165 471.47 732.761 468.923Z" fill="black"/>
<path d="M732.761 544.106C728.358 541.559 728.368 537.388 732.788 534.839C737.205 532.291 744.4 532.291 748.774 534.839C753.148 537.386 753.138 541.556 748.747 544.106C744.357 546.653 737.165 546.653 732.761 544.106Z" fill="black"/>
<path d="M866.843 238.838C862.44 236.291 862.451 232.12 866.87 229.571C871.287 227.023 878.482 227.023 882.856 229.571C887.231 232.118 887.22 236.288 882.83 238.838C878.442 241.385 871.247 241.385 866.843 238.838Z" fill="black"/>
<path d="M930.857 275.719C926.453 273.171 926.464 269.001 930.883 266.451C935.3 263.904 942.495 263.904 946.87 266.451C951.244 268.998 951.233 273.169 946.843 275.719C942.455 278.266 935.26 278.266 930.857 275.719Z" fill="black"/>
<path d="M866.843 392.94C862.44 390.393 862.451 386.222 866.87 383.672C871.287 381.125 878.482 381.125 882.856 383.672C887.231 386.219 887.22 390.39 882.83 392.94C878.442 395.487 871.247 395.487 866.843 392.94Z" fill="black"/>
<path d="M1131.79 312.338C1127.39 309.79 1127.4 305.62 1131.82 303.07C1136.24 300.523 1143.43 300.523 1147.8 303.07C1152.18 305.617 1152.17 309.788 1147.78 312.338C1143.39 314.885 1136.2 314.885 1131.79 312.338Z" fill="black"/>
<path d="M1001.28 470.081C996.874 467.534 996.885 463.364 1001.3 460.814C1005.72 458.267 1012.92 458.267 1017.29 460.814C1021.66 463.361 1021.65 467.531 1017.26 470.081C1012.88 472.629 1005.68 472.629 1001.28 470.081Z" fill="black"/>
<path d="M866.843 468.923C862.44 466.376 862.451 462.206 866.87 459.658C871.287 457.111 878.482 457.111 882.856 459.658C887.231 462.206 887.22 466.376 882.83 468.923C878.442 471.47 871.247 471.47 866.843 468.923Z" fill="black"/>
<path d="M1067.32 354.38C1062.92 351.832 1062.93 347.662 1067.35 345.112C1071.77 342.562 1078.96 342.565 1083.33 345.112C1087.71 347.659 1087.7 351.83 1083.31 354.38C1078.92 356.927 1071.73 356.927 1067.32 354.38Z" fill="black"/>
<path d="M866.843 161.915C862.44 159.368 862.451 155.197 866.87 152.647C871.287 150.1 878.482 150.1 882.856 152.647C887.231 155.194 887.22 159.365 882.83 161.915C878.442 164.465 871.247 164.465 866.843 161.915Z" fill="black"/>
</g>
<path d="M1005.59 247.55V309.179" stroke="black" stroke-width="4" stroke-miterlimit="10"/>
<path d="M1005.49 262.662C1016.9 262.662 1026.15 253.414 1026.15 242.006C1026.15 230.597 1016.9 221.349 1005.49 221.349C994.086 221.349 984.838 230.597 984.838 242.006C984.838 253.414 994.086 262.662 1005.49 262.662Z" fill="url(#paint0_linear)"/>
<path d="M806.357 520.452V582.08" stroke="black" stroke-width="4" stroke-miterlimit="10"/>
<path d="M806.357 536.666C815.313 536.666 822.574 529.407 822.574 520.452C822.574 511.497 815.313 504.238 806.357 504.238C797.401 504.238 790.141 511.497 790.141 520.452C790.141 529.407 797.401 536.666 806.357 536.666Z" fill="url(#paint1_linear)"/>
<path d="M807.166 364.551V426.18" stroke="black" stroke-width="4" stroke-miterlimit="10"/>
<path d="M206.238 326.993V388.622" stroke="black" stroke-width="4" stroke-miterlimit="10"/>
<path d="M807.166 362.693C837.646 362.693 862.354 337.988 862.354 307.513C862.354 277.039 837.646 252.334 807.166 252.334C776.687 252.334 751.978 277.039 751.978 307.513C751.978 337.988 776.687 362.693 807.166 362.693Z" fill="url(#paint2_linear)"/>
<path d="M206.448 332.145C217.857 332.145 227.105 322.896 227.105 311.488C227.105 300.079 217.857 290.831 206.448 290.831C195.04 290.831 185.792 300.079 185.792 311.488C185.792 322.896 195.04 332.145 206.448 332.145Z" fill="url(#paint3_linear)"/>
<path d="M402.175 289.562V351.195" stroke="black" stroke-width="4" stroke-miterlimit="10"/>
<path d="M472.597 405.053V466.686" stroke="black" stroke-width="4" stroke-miterlimit="10"/>
<path d="M1008.74 407.87V469.502" stroke="black" stroke-width="4" stroke-miterlimit="10"/>
<path d="M740.155 407.639V469.271" stroke="black" stroke-width="4" stroke-miterlimit="10"/>
<path d="M740.155 436.186C755.923 436.186 768.706 423.405 768.706 407.639C768.706 391.873 755.923 379.092 740.155 379.092C724.386 379.092 711.603 391.873 711.603 407.639C711.603 423.405 724.386 436.186 740.155 436.186Z" fill="url(#paint4_linear)"/>
<path d="M339.223 404.823V466.452" stroke="black" stroke-width="4" stroke-miterlimit="10"/>
<path d="M339.223 433.369C354.992 433.369 367.775 420.588 367.775 404.822C367.775 389.056 354.992 376.275 339.223 376.275C323.455 376.275 310.672 389.056 310.672 404.822C310.672 420.588 323.455 433.369 339.223 433.369Z" fill="url(#paint5_linear)"/>
<path d="M606.381 364.556V466.575" stroke="black" stroke-width="4" stroke-miterlimit="10"/>
<path d="M606 360C641.899 360 671 330.899 671 295C671 259.101 641.899 230 606 230C570.101 230 541 259.101 541 295C541 330.899 570.101 360 606 360Z" fill="url(#paint6_linear)"/>
<path d="M402.219 318.06C422.184 318.06 438.369 301.876 438.369 281.911C438.369 261.946 422.184 245.761 402.219 245.761C382.255 245.761 366.07 261.946 366.07 281.911C366.07 301.876 382.255 318.06 402.219 318.06Z" fill="url(#paint7_linear)"/>
<path d="M472.425 411.52C481.382 411.52 488.642 404.261 488.642 395.306C488.642 386.351 481.382 379.092 472.425 379.092C463.469 379.092 456.209 386.351 456.209 395.306C456.209 404.261 463.469 411.52 472.425 411.52Z" fill="url(#paint8_linear)"/>
<path d="M1008.57 404.947C1017.52 404.947 1024.78 397.688 1024.78 388.733C1024.78 379.779 1017.52 372.52 1008.57 372.52C999.609 372.52 992.349 379.779 992.349 388.733C992.349 397.688 999.609 404.947 1008.57 404.947Z" fill="url(#paint9_linear)"/>
<defs>
<filter id="filter0_i" x="-757.268" y="-88.812" width="1516.94" height="877.309" filterUnits="userSpaceOnUse" color-interpolation-filters="sRGB">
<feFlood flood-opacity="0" result="BackgroundImageFix"/>
<feBlend mode="normal" in="SourceGraphic" in2="BackgroundImageFix" result="shape"/>
<feColorMatrix in="SourceAlpha" type="matrix" values="0 0 0 0 0 0 0 0 0 0 0 0 0 0 0 0 0 0 127 0" result="hardAlpha"/>
<feOffset dy="4"/>
<feGaussianBlur stdDeviation="0.25"/>
<feComposite in2="hardAlpha" operator="arithmetic" k2="-1" k3="1"/>
<feColorMatrix type="matrix" values="0 0 0 0 0.7875 0 0 0 0 0.7875 0 0 0 0 0.7875 0 0 0 0.25 0"/>
<feBlend mode="normal" in2="shape" result="effect1_innerShadow"/>
</filter>
<filter id="filter1_i" x="-623.091" y="-88.8125" width="1516.94" height="877.309" filterUnits="userSpaceOnUse" color-interpolation-filters="sRGB">
<feFlood flood-opacity="0" result="BackgroundImageFix"/>
<feBlend mode="normal" in="SourceGraphic" in2="BackgroundImageFix" result="shape"/>
<feColorMatrix in="SourceAlpha" type="matrix" values="0 0 0 0 0 0 0 0 0 0 0 0 0 0 0 0 0 0 127 0" result="hardAlpha"/>
<feOffset dy="4"/>
<feGaussianBlur stdDeviation="0.25"/>
<feComposite in2="hardAlpha" operator="arithmetic" k2="-1" k3="1"/>
<feColorMatrix type="matrix" values="0 0 0 0 0.7875 0 0 0 0 0.7875 0 0 0 0 0.7875 0 0 0 0.25 0"/>
<feBlend mode="normal" in2="shape" result="effect1_innerShadow"/>
</filter>
<filter id="filter2_i" x="-488.917" y="-88.8125" width="1516.94" height="877.309" filterUnits="userSpaceOnUse" color-interpolation-filters="sRGB">
<feFlood flood-opacity="0" result="BackgroundImageFix"/>
<feBlend mode="normal" in="SourceGraphic" in2="BackgroundImageFix" result="shape"/>
<feColorMatrix in="SourceAlpha" type="matrix" values="0 0 0 0 0 0 0 0 0 0 0 0 0 0 0 0 0 0 127 0" result="hardAlpha"/>
<feOffset dy="4"/>
<feGaussianBlur stdDeviation="0.25"/>
<feComposite in2="hardAlpha" operator="arithmetic" k2="-1" k3="1"/>
<feColorMatrix type="matrix" values="0 0 0 0 0.7875 0 0 0 0 0.7875 0 0 0 0 0.7875 0 0 0 0.25 0"/>
<feBlend mode="normal" in2="shape" result="effect1_innerShadow"/>
</filter>
<filter id="filter3_i" x="-354.739" y="-88.8125" width="1516.94" height="877.309" filterUnits="userSpaceOnUse" color-interpolation-filters="sRGB">
<feFlood flood-opacity="0" result="BackgroundImageFix"/>
<feBlend mode="normal" in="SourceGraphic" in2="BackgroundImageFix" result="shape"/>
<feColorMatrix in="SourceAlpha" type="matrix" values="0 0 0 0 0 0 0 0 0 0 0 0 0 0 0 0 0 0 127 0" result="hardAlpha"/>
<feOffset dy="4"/>
<feGaussianBlur stdDeviation="0.25"/>
<feComposite in2="hardAlpha" operator="arithmetic" k2="-1" k3="1"/>
<feColorMatrix type="matrix" values="0 0 0 0 0.7875 0 0 0 0 0.7875 0 0 0 0 0.7875 0 0 0 0.25 0"/>
<feBlend mode="normal" in2="shape" result="effect1_innerShadow"/>
</filter>
<filter id="filter4_i" x="-220.564" y="-88.8125" width="1516.94" height="877.309" filterUnits="userSpaceOnUse" color-interpolation-filters="sRGB">
<feFlood flood-opacity="0" result="BackgroundImageFix"/>
<feBlend mode="normal" in="SourceGraphic" in2="BackgroundImageFix" result="shape"/>
<feColorMatrix in="SourceAlpha" type="matrix" values="0 0 0 0 0 0 0 0 0 0 0 0 0 0 0 0 0 0 127 0" result="hardAlpha"/>
<feOffset dy="4"/>
<feGaussianBlur stdDeviation="0.25"/>
<feComposite in2="hardAlpha" operator="arithmetic" k2="-1" k3="1"/>
<feColorMatrix type="matrix" values="0 0 0 0 0.7875 0 0 0 0 0.7875 0 0 0 0 0.7875 0 0 0 0.25 0"/>
<feBlend mode="normal" in2="shape" result="effect1_innerShadow"/>
</filter>
<filter id="filter5_i" x="-86.3867" y="-88.8125" width="1516.94" height="877.309" filterUnits="userSpaceOnUse" color-interpolation-filters="sRGB">
<feFlood flood-opacity="0" result="BackgroundImageFix"/>
<feBlend mode="normal" in="SourceGraphic" in2="BackgroundImageFix" result="shape"/>
<feColorMatrix in="SourceAlpha" type="matrix" values="0 0 0 0 0 0 0 0 0 0 0 0 0 0 0 0 0 0 127 0" result="hardAlpha"/>
<feOffset dy="4"/>
<feGaussianBlur stdDeviation="0.25"/>
<feComposite in2="hardAlpha" operator="arithmetic" k2="-1" k3="1"/>
<feColorMatrix type="matrix" values="0 0 0 0 0.7875 0 0 0 0 0.7875 0 0 0 0 0.7875 0 0 0 0.25 0"/>
<feBlend mode="normal" in2="shape" result="effect1_innerShadow"/>
</filter>
<filter id="filter6_i" x="47.7876" y="-88.8125" width="1516.94" height="877.309" filterUnits="userSpaceOnUse" color-interpolation-filters="sRGB">
<feFlood flood-opacity="0" result="BackgroundImageFix"/>
<feBlend mode="normal" in="SourceGraphic" in2="BackgroundImageFix" result="shape"/>
<feColorMatrix in="SourceAlpha" type="matrix" values="0 0 0 0 0 0 0 0 0 0 0 0 0 0 0 0 0 0 127 0" result="hardAlpha"/>
<feOffset dy="4"/>
<feGaussianBlur stdDeviation="0.25"/>
<feComposite in2="hardAlpha" operator="arithmetic" k2="-1" k3="1"/>
<feColorMatrix type="matrix" values="0 0 0 0 0.7875 0 0 0 0 0.7875 0 0 0 0 0.7875 0 0 0 0.25 0"/>
<feBlend mode="normal" in2="shape" result="effect1_innerShadow"/>
</filter>
<filter id="filter7_i" x="181.966" y="-88.8125" width="1516.94" height="877.309" filterUnits="userSpaceOnUse" color-interpolation-filters="sRGB">
<feFlood flood-opacity="0" result="BackgroundImageFix"/>
<feBlend mode="normal" in="SourceGraphic" in2="BackgroundImageFix" result="shape"/>
<feColorMatrix in="SourceAlpha" type="matrix" values="0 0 0 0 0 0 0 0 0 0 0 0 0 0 0 0 0 0 127 0" result="hardAlpha"/>
<feOffset dy="4"/>
<feGaussianBlur stdDeviation="0.25"/>
<feComposite in2="hardAlpha" operator="arithmetic" k2="-1" k3="1"/>
<feColorMatrix type="matrix" values="0 0 0 0 0.7875 0 0 0 0 0.7875 0 0 0 0 0.7875 0 0 0 0.25 0"/>
<feBlend mode="normal" in2="shape" result="effect1_innerShadow"/>
</filter>
<filter id="filter8_i" x="316.141" y="-88.8125" width="1516.95" height="877.309" filterUnits="userSpaceOnUse" color-interpolation-filters="sRGB">
<feFlood flood-opacity="0" result="BackgroundImageFix"/>
<feBlend mode="normal" in="SourceGraphic" in2="BackgroundImageFix" result="shape"/>
<feColorMatrix in="SourceAlpha" type="matrix" values="0 0 0 0 0 0 0 0 0 0 0 0 0 0 0 0 0 0 127 0" result="hardAlpha"/>
<feOffset dy="4"/>
<feGaussianBlur stdDeviation="0.25"/>
<feComposite in2="hardAlpha" operator="arithmetic" k2="-1" k3="1"/>
<feColorMatrix type="matrix" values="0 0 0 0 0.7875 0 0 0 0 0.7875 0 0 0 0 0.7875 0 0 0 0.25 0"/>
<feBlend mode="normal" in2="shape" result="effect1_innerShadow"/>
</filter>
<filter id="filter9_i" x="450.318" y="-88.8125" width="1516.94" height="877.309" filterUnits="userSpaceOnUse" color-interpolation-filters="sRGB">
<feFlood flood-opacity="0" result="BackgroundImageFix"/>
<feBlend mode="normal" in="SourceGraphic" in2="BackgroundImageFix" result="shape"/>
<feColorMatrix in="SourceAlpha" type="matrix" values="0 0 0 0 0 0 0 0 0 0 0 0 0 0 0 0 0 0 127 0" result="hardAlpha"/>
<feOffset dy="4"/>
<feGaussianBlur stdDeviation="0.25"/>
<feComposite in2="hardAlpha" operator="arithmetic" k2="-1" k3="1"/>
<feColorMatrix type="matrix" values="0 0 0 0 0.7875 0 0 0 0 0.7875 0 0 0 0 0.7875 0 0 0 0.25 0"/>
<feBlend mode="normal" in2="shape" result="effect1_innerShadow"/>
</filter>
<filter id="filter10_i" x="62.2559" y="149.05" width="1088.82" height="437.616" filterUnits="userSpaceOnUse" color-interpolation-filters="sRGB">
<feFlood flood-opacity="0" result="BackgroundImageFix"/>
<feBlend mode="normal" in="SourceGraphic" in2="BackgroundImageFix" result="shape"/>
<feColorMatrix in="SourceAlpha" type="matrix" values="0 0 0 0 0 0 0 0 0 0 0 0 0 0 0 0 0 0 127 0" result="hardAlpha"/>
<feOffset dy="4"/>
<feGaussianBlur stdDeviation="1"/>
<feComposite in2="hardAlpha" operator="arithmetic" k2="-1" k3="1"/>
<feColorMatrix type="matrix" values="0 0 0 0 0.9875 0 0 0 0 0.9875 0 0 0 0 0.9875 0 0 0 0.25 0"/>
<feBlend mode="normal" in2="shape" result="effect1_innerShadow"/>
</filter>
<linearGradient id="paint0_linear" x1="990.888" y1="227.398" x2="1020.1" y2="256.608" gradientUnits="userSpaceOnUse">
<stop stop-color="#FF8B71"/>
<stop offset="0.704" stop-color="#C33F50"/>
<stop offset="1" stop-color="#A81E41"/>
</linearGradient>
<linearGradient id="paint1_linear" x1="794.89" y1="508.988" x2="817.817" y2="531.918" gradientUnits="userSpaceOnUse">
<stop stop-color="#FF8B71"/>
<stop offset="0.704" stop-color="#C33F50"/>
<stop offset="1" stop-color="#A81E41"/>
</linearGradient>
<linearGradient id="paint2_linear" x1="768.142" y1="268.496" x2="846.176" y2="346.543" gradientUnits="userSpaceOnUse">
<stop stop-color="#FF8B71"/>
<stop offset="0.704" stop-color="#C33F50"/>
<stop offset="1" stop-color="#A81E41"/>
</linearGradient>
<linearGradient id="paint3_linear" x1="191.842" y1="296.882" x2="221.055" y2="326.094" gradientUnits="userSpaceOnUse">
<stop stop-color="#FF8B71"/>
<stop offset="0.704" stop-color="#C33F50"/>
<stop offset="1" stop-color="#A81E41"/>
</linearGradient>
<linearGradient id="paint4_linear" x1="719.965" y1="387.454" x2="760.338" y2="427.834" gradientUnits="userSpaceOnUse">
<stop stop-color="#FF8B71"/>
<stop offset="0.704" stop-color="#C33F50"/>
<stop offset="1" stop-color="#A81E41"/>
</linearGradient>
<linearGradient id="paint5_linear" x1="319.034" y1="384.636" x2="359.407" y2="425.016" gradientUnits="userSpaceOnUse">
<stop stop-color="#FF8B71"/>
<stop offset="0.704" stop-color="#C33F50"/>
<stop offset="1" stop-color="#A81E41"/>
</linearGradient>
<linearGradient id="paint6_linear" x1="560.04" y1="249.038" x2="651.962" y2="340.961" gradientUnits="userSpaceOnUse">
<stop stop-color="#FF8B71"/>
<stop offset="0.704" stop-color="#C33F50"/>
<stop offset="1" stop-color="#A81E41"/>
</linearGradient>
<linearGradient id="paint7_linear" x1="376.659" y1="256.355" x2="427.776" y2="307.472" gradientUnits="userSpaceOnUse">
<stop stop-color="#FF8B71"/>
<stop offset="0.704" stop-color="#C33F50"/>
<stop offset="1" stop-color="#A81E41"/>
</linearGradient>
<linearGradient id="paint8_linear" x1="460.959" y1="383.844" x2="483.886" y2="406.775" gradientUnits="userSpaceOnUse">
<stop stop-color="#FF8B71"/>
<stop offset="0.704" stop-color="#C33F50"/>
<stop offset="1" stop-color="#A81E41"/>
</linearGradient>
<linearGradient id="paint9_linear" x1="997.099" y1="377.271" x2="1020.03" y2="400.202" gradientUnits="userSpaceOnUse">
<stop stop-color="#FF8B71"/>
<stop offset="0.704" stop-color="#C33F50"/>
<stop offset="1" stop-color="#A81E41"/>
</linearGradient>
</defs>
</svg>
