<?xml version="1.0" encoding="utf-8"?>
<!-- Generator: Adobe Illustrator 24.1.2, SVG Export Plug-In . SVG Version: 6.00 Build 0)  -->
<svg version="1.1" id="IconCoin" xmlns="http://www.w3.org/2000/svg" xmlns:xlink="http://www.w3.org/1999/xlink" x="0px" y="0px"
	 viewBox="0 0 200 200" style="enable-background:new 0 0 200 200;" xml:space="preserve">
<style type="text/css">
	.st0{fill:url(#SVGID_1_);}
	.st1{fill:url(#SVGID_2_);}
	.st2{fill:url(#SVGID_3_);}
	.st3{fill:url(#SVGID_4_);}
	.st4{fill:url(#SVGID_5_);}
	.st5{fill:url(#SVGID_6_);}
	.st6{fill:url(#SVGID_7_);}
</style>
<g>
	<linearGradient id="SVGID_1_" gradientUnits="userSpaceOnUse" x1="35.7525" y1="154.3015" x2="164.2475" y2="154.3015">
		<stop  offset="0" style="stop-color:#FF8B71"/>
		<stop  offset="0.704" style="stop-color:#C33F50"/>
		<stop  offset="1" style="stop-color:#A81E41"/>
	</linearGradient>
	<path class="st0" d="M52.02,140.92l18.74,8.12c2.59-4.41,7.55-7.22,13.01-7.36l17.3-0.44c2.74-0.07,5.43-0.71,7.86-1.86l1.76-0.84
		c9.01-4.31,19.76-4.3,28.76,0.03l-0.11-3.66c-0.04-1.21,1-2.22,2.33-2.25l18.97-0.48c1.32-0.03,2.42,0.92,2.46,2.13l1.15,38.17
		c0.04,1.21-1,2.22-2.33,2.25l-18.97,0.48h-0.07c-1.3,0-2.36-0.95-2.39-2.13l-0.05-1.83l-4.93-2.42c-1.93-0.95-4.2-1.18-6.31-0.63
		l-29.43,7.57c-0.05,0.01-0.1,0.02-0.16,0.04c-2.13,0.41-4.3,0.61-6.47,0.61c-4.6,0-9.15-0.91-13.33-2.67
		c-0.1-0.04-0.2-0.09-0.3-0.15l-42.67-25.3c-1.06-0.63-1.41-1.91-0.78-2.92C39.23,140.22,46.26,138.26,52.02,140.92z M159.4,170.41
		l-1.01-33.78l-14.19,0.36l1.01,33.78L159.4,170.41z M81.97,169.84c5.2,2.15,11,2.74,16.59,1.7l29.35-7.55
		c3.3-0.86,6.84-0.5,9.86,0.99l2.52,1.24l-0.67-22.46c-7.98-4.87-18.22-5.37-26.72-1.31l-1.76,0.84c-3.08,1.46-6.47,2.26-9.93,2.35
		l-17.3,0.44c-4.86,0.13-8.99,3.3-9.97,7.67l25.77-0.65c1.32-0.03,2.42,0.92,2.46,2.13c0.04,1.21-1.01,2.22-2.33,2.25l-28.44,0.72
		h-0.07c-1.3,0-2.35-0.95-2.39-2.13c-0.03-0.95,0.05-1.91,0.23-2.85l-19.22-8.33c-0.02-0.01-0.04-0.02-0.06-0.02
		c-2.73-1.26-6.02-0.84-8.27,1.06L81.97,169.84z"/>
	<linearGradient id="SVGID_2_" gradientUnits="userSpaceOnUse" x1="86.4735" y1="37.9154" x2="91.5165" y2="37.9154">
		<stop  offset="0" style="stop-color:#FF8B71"/>
		<stop  offset="0.704" style="stop-color:#C33F50"/>
		<stop  offset="1" style="stop-color:#A81E41"/>
	</linearGradient>
	<path class="st1" d="M86.47,49.76V26.07c0-1.38,1.13-2.49,2.52-2.49c1.39,0,2.52,1.12,2.52,2.49v23.69c0,1.38-1.13,2.49-2.52,2.49
		C87.6,52.25,86.47,51.14,86.47,49.76z"/>
	<linearGradient id="SVGID_3_" gradientUnits="userSpaceOnUse" x1="67.5622" y1="44.1488" x2="72.6052" y2="44.1488">
		<stop  offset="0" style="stop-color:#FF8B71"/>
		<stop  offset="0.704" style="stop-color:#C33F50"/>
		<stop  offset="1" style="stop-color:#A81E41"/>
	</linearGradient>
	<path class="st2" d="M67.56,49.76V38.54c0-1.38,1.13-2.49,2.52-2.49s2.52,1.12,2.52,2.49v11.22c0,1.38-1.13,2.49-2.52,2.49
		S67.56,51.14,67.56,49.76z"/>
	<linearGradient id="SVGID_4_" gradientUnits="userSpaceOnUse" x1="105.3848" y1="44.1488" x2="110.4278" y2="44.1488">
		<stop  offset="0" style="stop-color:#FF8B71"/>
		<stop  offset="0.704" style="stop-color:#C33F50"/>
		<stop  offset="1" style="stop-color:#A81E41"/>
	</linearGradient>
	<path class="st3" d="M105.38,49.76V38.54c0-1.38,1.13-2.49,2.52-2.49s2.52,1.12,2.52,2.49v11.22c0,1.38-1.13,2.49-2.52,2.49
		S105.38,51.14,105.38,49.76z"/>
	<linearGradient id="SVGID_5_" gradientUnits="userSpaceOnUse" x1="149.0542" y1="143.5448" x2="153.6572" y2="143.5448">
		<stop  offset="0" style="stop-color:#FF8B71"/>
		<stop  offset="0.704" style="stop-color:#C33F50"/>
		<stop  offset="1" style="stop-color:#A81E41"/>
	</linearGradient>
	<path class="st4" d="M151.36,141.24c-1.27,0-2.3,1.03-2.3,2.3s1.03,2.3,2.3,2.3s2.3-1.03,2.3-2.3S152.63,141.24,151.36,141.24z"/>
	<g>
		<linearGradient id="SVGID_6_" gradientUnits="userSpaceOnUse" x1="74.2113" y1="89.6495" x2="105.1851" y2="89.6495">
			<stop  offset="0" style="stop-color:#FF8B71"/>
			<stop  offset="0.704" style="stop-color:#C33F50"/>
			<stop  offset="1" style="stop-color:#A81E41"/>
		</linearGradient>
		<path class="st5" d="M74.21,98.52c10.38-8.36,17.21-13.39,30.97-17.73C91.71,82.97,80.82,90.47,74.21,98.52z"/>
		<linearGradient id="SVGID_7_" gradientUnits="userSpaceOnUse" x1="56.0818" y1="91.3811" x2="122.6709" y2="91.3811">
			<stop  offset="0" style="stop-color:#FF8B71"/>
			<stop  offset="0.704" style="stop-color:#C33F50"/>
			<stop  offset="1" style="stop-color:#A81E41"/>
		</linearGradient>
		<path class="st6" d="M89.38,58.09c-18.39,0-33.29,14.91-33.29,33.29s14.91,33.29,33.29,33.29s33.29-14.91,33.29-33.29
			S107.76,58.09,89.38,58.09z M101.92,85.62c1.17,0.13,2.34,0.27,3.5,0.4c0.04,0.11,0.08,0.21,0.12,0.32
			c-0.71,0.55-1.38,1.16-2.14,1.63c-2.05,1.26-3.45,3.75-6.81,2.87c0.49,0.5,0.76,0.77,0.94,0.95c-2.74,2.61-6.22,3.19-10.11,2.72
			c0.63,0.26,1.21,0.33,1.78,0.47c0.53,0.13,1.06,0.34,1.58,0.52c-3.22,2.02-6.45,3.64-10.7,3.05c0.35,0.35,0.56,0.56,1.05,1.04
			c-2.5,0.55-4.74,1.14-7.05,1.51c-1.64,0.26-3.06,0.81-4.23,1.9c-0.72,0.67-1.44,1.33-2.19,1.95c-0.72,0.6-1.49,1.16-2.23,1.73
			c-0.07-0.08-0.15-0.16-0.22-0.24c0.59-0.71,1.14-1.47,1.79-2.12c2.04-2.05,3.97-4.17,4.31-7.45c0.05-0.46,0.29-0.86,0.45-1.28
			c0.04-0.1,0.12-0.17,0.19-0.26c0.19,0.17,0.36,0.33,0.67,0.61c0.22-0.73,0.4-1.35,0.65-2.21c0.14,0.74,0.24,1.24,0.34,1.74
			c0.43-1.45,0.18-3.16,1.42-4.04c-0.12,1.08-0.25,2.23-0.38,3.38c1.32-5.07,5.13-7.53,8.96-10.17c0.18,0.8,0.3,1.36,0.41,1.84
			c0.33-0.87,0.44-1.92,1-2.47c1.9-1.88,4.46-2.69,7.2-3.57c-0.33,0.88-0.57,1.53-0.82,2.17c2.98-2.44,6.53-3.69,10.26-4.55
			c3.78-0.88,7.63-1.34,12.03,0.6C110.47,82.37,106.55,84.51,101.92,85.62z"/>
	</g>
</g>
</svg>
