<?xml version="1.0" encoding="utf-8"?>
<!-- Generator: Adobe Illustrator 24.1.2, SVG Export Plug-In . SVG Version: 6.00 Build 0)  -->
<svg version="1.1" id="IconHands" xmlns="http://www.w3.org/2000/svg" xmlns:xlink="http://www.w3.org/1999/xlink" x="0px" y="0px"
	 viewBox="0 0 200 200" style="enable-background:new 0 0 200 200;" xml:space="preserve">
<style type="text/css">
	.st0{fill:url(#SVGID_1_);}
	.st1{fill:url(#SVGID_2_);}
	.st2{fill:url(#SVGID_3_);}
	.st3{fill:url(#SVGID_4_);}
</style>
<g>
	<g>
		<linearGradient id="SVGID_1_" gradientUnits="userSpaceOnUse" x1="85.6887" y1="56.4415" x2="117.9231" y2="56.4415">
			<stop  offset="0" style="stop-color:#FF8B71"/>
			<stop  offset="0.704" style="stop-color:#C33F50"/>
			<stop  offset="1" style="stop-color:#A81E41"/>
		</linearGradient>
		<path class="st0" d="M85.69,65.67c10.8-8.7,17.91-13.93,32.23-18.45C103.9,49.49,92.56,57.3,85.69,65.67z"/>
		<linearGradient id="SVGID_2_" gradientUnits="userSpaceOnUse" x1="66.8213" y1="58.2436" x2="136.1205" y2="58.2436">
			<stop  offset="0" style="stop-color:#FF8B71"/>
			<stop  offset="0.704" style="stop-color:#C33F50"/>
			<stop  offset="1" style="stop-color:#A81E41"/>
		</linearGradient>
		<path class="st1" d="M101.47,23.59c-19.14,0-34.65,15.51-34.65,34.65s15.51,34.65,34.65,34.65s34.65-15.51,34.65-34.65
			S120.61,23.59,101.47,23.59z M114.52,52.25c1.22,0.14,2.43,0.28,3.65,0.42c0.04,0.11,0.08,0.22,0.12,0.33
			c-0.74,0.57-1.43,1.21-2.23,1.7c-2.13,1.32-3.59,3.9-7.09,2.99c0.51,0.52,0.79,0.8,0.98,0.99c-2.86,2.72-6.47,3.32-10.52,2.83
			c0.65,0.27,1.25,0.34,1.85,0.48c0.55,0.13,1.1,0.36,1.65,0.54c-3.35,2.11-6.72,3.79-11.13,3.18c0.36,0.36,0.59,0.58,1.1,1.09
			c-2.6,0.57-4.94,1.19-7.34,1.57c-1.71,0.27-3.19,0.84-4.41,1.98c-0.75,0.69-1.5,1.38-2.28,2.03c-0.75,0.63-1.55,1.2-2.32,1.8
			c-0.08-0.08-0.15-0.17-0.23-0.25c0.62-0.74,1.19-1.53,1.86-2.21c2.13-2.13,4.13-4.34,4.48-7.76c0.05-0.47,0.3-0.9,0.47-1.33
			c0.04-0.1,0.13-0.17,0.2-0.27c0.2,0.18,0.37,0.34,0.69,0.64c0.23-0.76,0.42-1.41,0.68-2.3c0.15,0.77,0.25,1.29,0.35,1.81
			c0.44-1.5,0.18-3.29,1.48-4.2c-0.13,1.13-0.26,2.32-0.39,3.51c1.38-5.27,5.34-7.84,9.33-10.58c0.19,0.83,0.32,1.41,0.43,1.91
			c0.34-0.9,0.45-1.99,1.04-2.57c1.98-1.96,4.64-2.79,7.49-3.71c-0.34,0.92-0.6,1.59-0.85,2.26c3.1-2.54,6.8-3.84,10.68-4.74
			c3.93-0.92,7.94-1.4,12.52,0.62C123.42,48.86,119.34,51.1,114.52,52.25z"/>
	</g>
	
		<linearGradient id="SVGID_3_" gradientUnits="userSpaceOnUse" x1="92.1398" y1="95.2356" x2="147.6618" y2="95.2356" gradientTransform="matrix(0.9895 -0.1446 0.1446 0.9895 -71.0098 47.24)">
		<stop  offset="0" style="stop-color:#FF8B71"/>
		<stop  offset="0.704" style="stop-color:#C33F50"/>
		<stop  offset="1" style="stop-color:#A81E41"/>
	</linearGradient>
	<path class="st2" d="M57.69,108.78c-3.02-2.25-7.09-2.11-9.94,0.08l-3.96-27.13c-0.2-1.38-0.74-2.63-1.51-3.68
		c0.35-0.16,0.72-0.27,1.11-0.33c2.19-0.32,4.24,1.2,4.56,3.4l2.93,20.03c0.17,1.15,1.24,1.95,2.39,1.78
		c1.15-0.17,1.95-1.24,1.78-2.39l-2.93-20.03c-0.66-4.49-4.84-7.61-9.34-6.96c-1.49,0.22-2.86,0.83-4,1.76
		c-1.33-0.55-2.81-0.76-4.33-0.54c-4.49,0.66-7.61,4.84-6.96,9.34l5.62,38.22c0.26,1.74,1.26,4.11,2.34,5.51
		c0.02,0.02,0.04,0.05,0.05,0.07l29.67,35.35c0.63,0.84,1.33,2.5,1.48,3.52l1.11,7.62c0.17,1.15,1.24,1.95,2.39,1.78
		s1.95-1.24,1.78-2.39l-1.11-7.62c-0.25-1.74-1.26-4.11-2.34-5.51c-0.02-0.02-0.04-0.05-0.05-0.07l-29.67-35.35
		c-0.63-0.84-1.33-2.5-1.48-3.52L31.66,83.5c-0.32-2.19,1.2-4.24,3.4-4.56c2.19-0.32,4.24,1.2,4.56,3.4l5,34.23
		c0.01,0.05,0.02,0.1,0.03,0.14c0.33,2.03,1.42,3.94,3.2,5.27l21.38,15.93c0.93,0.69,2.25,0.5,2.95-0.43
		c0.69-0.93,0.5-2.25-0.43-2.95l-21.38-15.93c-1.78-1.33-2.15-3.85-0.82-5.63c1.33-1.78,3.85-2.15,5.63-0.82l26.31,19.6
		c2.94,2.19,5.87,7.1,6.39,10.72l4.14,28.37c0.17,1.15,1.24,1.95,2.39,1.78s1.95-1.24,1.78-2.39l-4.14-28.37
		c-0.69-4.72-4.22-10.64-8.05-13.49L57.69,108.78z"/>
	
		<linearGradient id="SVGID_4_" gradientUnits="userSpaceOnUse" x1="68.0167" y1="154.8299" x2="123.5376" y2="154.8299" gradientTransform="matrix(0.9931 0.1175 -0.1175 0.9931 62.817 -40.869)">
		<stop  offset="0" style="stop-color:#FF8B71"/>
		<stop  offset="0.704" style="stop-color:#C33F50"/>
		<stop  offset="1" style="stop-color:#A81E41"/>
	</linearGradient>
	<path class="st3" d="M165.33,74.05c-1.53-0.18-3,0.07-4.31,0.66c-1.17-0.9-2.56-1.47-4.05-1.65c-4.51-0.53-8.61,2.7-9.14,7.21
		l-2.38,20.1c-0.14,1.15,0.69,2.2,1.84,2.34s2.2-0.69,2.34-1.84l2.38-20.1c0.26-2.2,2.27-3.78,4.47-3.52
		c0.39,0.05,0.77,0.15,1.12,0.3c-0.74,1.07-1.24,2.33-1.41,3.72l-3.22,27.22c-1.13-0.82-2.45-1.35-3.87-1.51
		c-2.18-0.26-4.34,0.35-6.06,1.71L117.26,129c-3.74,2.95-7.11,8.97-7.67,13.7l-3.37,28.47c-0.14,1.15,0.69,2.2,1.84,2.34
		c1.15,0.14,2.2-0.69,2.34-1.84l3.37-28.47c0.43-3.64,3.22-8.63,6.1-10.89l25.77-20.31c0.84-0.67,1.9-0.96,2.96-0.84
		c1.07,0.13,2.02,0.66,2.69,1.5c0.67,0.84,0.96,1.9,0.84,2.96s-0.66,2.02-1.5,2.69l-20.94,16.51c-0.91,0.72-1.07,2.04-0.35,2.96
		s2.04,1.07,2.96,0.35l20.94-16.51c1.73-1.36,2.82-3.31,3.08-5.5l4.07-34.36c0.26-2.2,2.27-3.78,4.47-3.52
		c2.2,0.26,3.78,2.26,3.52,4.47l-4.57,38.36c-0.12,1.02-0.78,2.71-1.39,3.56l-28.7,36.15c-0.02,0.02-0.04,0.05-0.05,0.07
		c-1.04,1.43-1.98,3.82-2.19,5.57l-0.9,7.64c-0.14,1.15,0.69,2.2,1.84,2.34c1.15,0.14,2.2-0.69,2.34-1.84l0.9-7.64
		c0.12-1.02,0.78-2.7,1.38-3.56l28.7-36.15c0.02-0.02,0.04-0.05,0.05-0.07c1.04-1.42,1.98-3.82,2.19-5.57l4.57-38.36
		C173.07,78.69,169.84,74.59,165.33,74.05z"/>
</g>
</svg>
