<?xml version="1.0" encoding="utf-8"?>
<!-- Generator: Adobe Illustrator 24.1.2, SVG Export Plug-In . SVG Version: 6.00 Build 0)  -->
<svg version="1.1" id="IconPlants" xmlns="http://www.w3.org/2000/svg" xmlns:xlink="http://www.w3.org/1999/xlink" x="0px" y="0px"
	 viewBox="0 0 200 200" style="enable-background:new 0 0 200 200;" xml:space="preserve">
<style type="text/css">
	.st0{fill:url(#SVGID_1_);}
	.st1{fill:url(#SVGID_2_);}
	.st2{fill:url(#SVGID_3_);}
	.st3{fill:url(#SVGID_4_);}
	.st4{fill:url(#SVGID_5_);}
	.st5{fill:url(#SVGID_6_);}
	.st6{fill:url(#SVGID_7_);}
	.st7{fill:none;stroke:url(#SVGID_8_);stroke-width:5;stroke-miterlimit:10;}
	.st8{fill:none;stroke:url(#SVGID_9_);stroke-width:5;stroke-miterlimit:10;}
	.st9{fill:none;stroke:url(#SVGID_10_);stroke-width:5;stroke-miterlimit:10;}
	.st10{fill:none;stroke:url(#SVGID_11_);stroke-width:5;stroke-miterlimit:10;}
	.st11{fill:none;stroke:url(#SVGID_12_);stroke-width:5;stroke-miterlimit:10;}
	.st12{fill:none;stroke:url(#SVGID_13_);stroke-width:5;stroke-miterlimit:10;}
	.st13{fill:none;stroke:url(#SVGID_14_);stroke-width:5;stroke-miterlimit:10;}
	.st14{fill:none;stroke:url(#SVGID_15_);stroke-width:5;stroke-miterlimit:10;}
	.st15{fill:none;stroke:url(#SVGID_16_);stroke-width:5;stroke-miterlimit:10;}
	.st16{fill:none;stroke:url(#SVGID_17_);stroke-width:5;stroke-miterlimit:10;}
	.st17{fill:none;stroke:url(#SVGID_18_);stroke-width:5;stroke-miterlimit:10;}
	.st18{fill:none;stroke:url(#SVGID_19_);stroke-width:5;stroke-miterlimit:10;}
	.st19{fill:none;stroke:url(#SVGID_20_);stroke-width:5;stroke-miterlimit:10;}
	.st20{fill:none;stroke:url(#SVGID_21_);stroke-width:5;stroke-miterlimit:10;}
	.st21{fill:url(#SVGID_22_);}
	.st22{fill:url(#SVGID_23_);}
</style>
<g>
	<g>
		
			<linearGradient id="SVGID_1_" gradientUnits="userSpaceOnUse" x1="95.882" y1="38.2313" x2="181.1279" y2="38.2313" gradientTransform="matrix(0.9998 -0.0223 0.0223 0.9998 -9.0686 24.4234)">
			<stop  offset="0" style="stop-color:#FF8B71"/>
			<stop  offset="0.704" style="stop-color:#C33F50"/>
			<stop  offset="1" style="stop-color:#A81E41"/>
		</linearGradient>
		<path class="st0" d="M141.06,30.72c-0.93,1.04-1.72,2.17-2.37,3.38l-3.76-3.1c-0.57-0.47-1.42-0.41-1.91,0.15l-11.51,12.9
			l-5.64-5.03c-0.57-0.51-1.44-0.46-1.95,0.11c-4.74,5.31-6.44,12.59-4.54,19.47c0,0,0,0.01,0,0.01c0.06,0.23,0.19,0.44,0.37,0.62
			l2.84,2.74l-5.9,6.61l-14.45-2.43l0.12-0.72c0.12-0.75-0.39-1.46-1.15-1.59c-0.75-0.12-1.46,0.39-1.59,1.15l-1.63,10.13
			c-0.12,0.75,0.39,1.46,1.15,1.59c0.48,0.08,0.95-0.11,1.25-0.45c0.17-0.19,0.29-0.43,0.33-0.7l0.1-0.61l46.71,11.1l7.21,6.96
			c0.27,0.26,0.64,0.4,1.01,0.39c0.38-0.01,0.73-0.18,0.98-0.46l25.88-29c0.25-0.28,0.38-0.65,0.35-1.03
			c-0.03-0.38-0.21-0.72-0.5-0.96l-7.1-5.85c0.71-0.58,1.37-1.22,1.98-1.9c6.47-7.25,5.83-18.4-1.41-24.87
			S147.53,23.48,141.06,30.72z M165.28,52.33c-0.64,0.72-1.35,1.37-2.1,1.95l-2.21-1.82c0.82-0.56,1.58-1.21,2.25-1.97
			c4.43-4.97,4-12.62-0.97-17.05c-4.97-4.43-12.62-4-17.05,0.97c-0.88,0.98-1.59,2.11-2.1,3.32l-2.21-1.82
			c0.59-1.2,1.34-2.32,2.25-3.33c5.45-6.11,14.85-6.64,20.96-1.19C170.19,36.82,170.73,46.23,165.28,52.33z M164.66,64.53l2.8-3.14
			l2.14,1.76l-23.97,26.86l-1.99-1.92l17.34-19.43c0.51-0.57,0.46-1.44-0.11-1.95c-0.57-0.51-1.44-0.46-1.95,0.11l-17.27,19.35
			l-8.29-8.01c-0.55-0.53-1.43-0.52-1.96,0.03c-0.53,0.55-0.52,1.43,0.03,1.96l2.19,2.12L91.26,72.2l0.53-3.33l33.84,5.69l1.81,1.75
			c0.55,0.53,1.43,0.52,1.96-0.03c0.01-0.01,0.03-0.03,0.04-0.04c0.49-0.55,0.46-1.4-0.07-1.92l-16.74-16.16l21.57-24.18l28.02,23.1
			c0.01,0.01,0.02,0.01,0.02,0.02l3.07,2.53l-2.73,3.06c-0.51,0.57-0.46,1.44,0.11,1.95C163.27,65.15,164.15,65.1,164.66,64.53z
			 M115.1,42.04l4.57,4.08l-8.15,9.13C110.94,50.54,112.2,45.82,115.1,42.04z M145.35,39.58c0.4-1.23,1.04-2.37,1.91-3.33
			c3.42-3.83,9.32-4.17,13.15-0.75c3.83,3.42,4.17,9.32,0.75,13.15c-0.71,0.79-1.53,1.44-2.44,1.95L145.35,39.58z M114.58,63.88
			l7.54,7.28l-12.2-2.05L114.58,63.88L114.58,63.88z"/>
	</g>
	<linearGradient id="SVGID_2_" gradientUnits="userSpaceOnUse" x1="99.9268" y1="151.9851" x2="120.0749" y2="151.9851">
		<stop  offset="0" style="stop-color:#FF8B71"/>
		<stop  offset="0.704" style="stop-color:#C33F50"/>
		<stop  offset="1" style="stop-color:#A81E41"/>
	</linearGradient>
	<path class="st1" d="M116.26,150.89 M99.93,174.64h3.61v-25.15l6.46,0h0h0c5.55,0,10.07-4.52,10.07-10.08v-8.27
		c0-1-0.81-1.81-1.81-1.81l-8.27,0c-5.55,0-10.07,4.52-10.07,10.08L99.93,174.64z M110,132.95l6.46,0v6.46
		c0,3.56-2.9,6.46-6.46,6.46h0l-6.46,0l0-6.46C103.54,135.85,106.44,132.95,110,132.95z"/>
	<linearGradient id="SVGID_3_" gradientUnits="userSpaceOnUse" x1="83.0669" y1="151.9851" x2="100.7788" y2="151.9851">
		<stop  offset="0" style="stop-color:#FF8B71"/>
		<stop  offset="0.704" style="stop-color:#C33F50"/>
		<stop  offset="1" style="stop-color:#A81E41"/>
	</linearGradient>
	<path class="st2" d="M86.42,150.89 M100.78,174.64H97.6v-25.15l-5.68,0h0h0c-4.88,0-8.85-4.52-8.85-10.08v-8.27
		c0-1,0.71-1.81,1.59-1.81l7.27,0c4.88,0,8.86,4.52,8.86,10.08L100.78,174.64z M91.92,132.95l-5.68,0v6.46
		c0,3.56,2.55,6.46,5.68,6.46h0l5.68,0l0-6.46C97.6,135.85,95.05,132.95,91.92,132.95z"/>
	<linearGradient id="SVGID_4_" gradientUnits="userSpaceOnUse" x1="145.9353" y1="161.4723" x2="166.0833" y2="161.4723">
		<stop  offset="0" style="stop-color:#FF8B71"/>
		<stop  offset="0.704" style="stop-color:#C33F50"/>
		<stop  offset="1" style="stop-color:#A81E41"/>
	</linearGradient>
	<path class="st3" d="M145.94,174.64h3.61v-6.17l6.46,0h0h0c5.55,0,10.07-4.52,10.07-10.08v-8.27c0-1-0.81-1.81-1.81-1.81l-8.27,0
		c-5.55,0-10.07,4.52-10.07,10.08L145.94,174.64z M156.01,151.92l6.46,0v6.46c0,3.56-2.9,6.46-6.46,6.46h0l-6.46,0l0-6.46
		C149.55,154.82,152.45,151.92,156.01,151.92z"/>
	<linearGradient id="SVGID_5_" gradientUnits="userSpaceOnUse" x1="129.0754" y1="161.4723" x2="146.7872" y2="161.4723">
		<stop  offset="0" style="stop-color:#FF8B71"/>
		<stop  offset="0.704" style="stop-color:#C33F50"/>
		<stop  offset="1" style="stop-color:#A81E41"/>
	</linearGradient>
	<path class="st4" d="M146.79,174.64h-3.18v-6.17l-5.68,0h0h0c-4.88,0-8.85-4.52-8.85-10.08v-8.27c0-1,0.71-1.81,1.59-1.81l7.27,0
		c4.88,0,8.86,4.52,8.86,10.08L146.79,174.64z M137.93,151.92l-5.68,0v6.46c0,3.56,2.55,6.46,5.68,6.46h0l5.68,0l0-6.46
		C143.61,154.82,141.06,151.92,137.93,151.92z"/>
	<linearGradient id="SVGID_6_" gradientUnits="userSpaceOnUse" x1="50.3297" y1="157.2826" x2="70.4778" y2="157.2826">
		<stop  offset="0" style="stop-color:#FF8B71"/>
		<stop  offset="0.704" style="stop-color:#C33F50"/>
		<stop  offset="1" style="stop-color:#A81E41"/>
	</linearGradient>
	<path class="st5" d="M50.33,175.15h3.61v-15.59l6.46,0h0h0c5.55,0,10.07-4.52,10.07-10.08v-8.27c0-1-0.81-1.81-1.81-1.81l-8.27,0
		c-5.55,0-10.07,4.52-10.07,10.08L50.33,175.15z M60.4,143.03l6.46,0v6.46c0,3.56-2.9,6.46-6.46,6.46h0l-6.46,0l0-6.46
		C53.94,145.92,56.84,143.03,60.4,143.03z"/>
	<linearGradient id="SVGID_7_" gradientUnits="userSpaceOnUse" x1="33.4698" y1="157.2826" x2="51.1817" y2="157.2826">
		<stop  offset="0" style="stop-color:#FF8B71"/>
		<stop  offset="0.704" style="stop-color:#C33F50"/>
		<stop  offset="1" style="stop-color:#A81E41"/>
	</linearGradient>
	<path class="st6" d="M51.18,175.15H48v-15.59l-5.68,0h0h0c-4.88,0-8.85-4.52-8.85-10.08v-8.27c0-1,0.71-1.81,1.59-1.81l7.27,0
		c4.88,0,8.86,4.52,8.86,10.08L51.18,175.15z M42.33,143.03l-5.68,0v6.46c0,3.56,2.55,6.46,5.68,6.46h0l5.68,0l0-6.46
		C48,145.92,45.46,143.03,42.33,143.03z"/>
	<linearGradient id="SVGID_8_" gradientUnits="userSpaceOnUse" x1="22.0151" y1="75.8781" x2="27.6609" y2="75.8781">
		<stop  offset="0" style="stop-color:#FA856E"/>
		<stop  offset="1" style="stop-color:#B22A46"/>
	</linearGradient>
	<line class="st7" x1="22.02" y1="75.88" x2="27.66" y2="75.88"/>
	<linearGradient id="SVGID_9_" gradientUnits="userSpaceOnUse" x1="27.2146" y1="64.3952" x2="32.8604" y2="64.3952">
		<stop  offset="0" style="stop-color:#FA856E"/>
		<stop  offset="1" style="stop-color:#B22A46"/>
	</linearGradient>
	<line class="st8" x1="27.21" y1="64.4" x2="32.86" y2="64.4"/>
	<linearGradient id="SVGID_10_" gradientUnits="userSpaceOnUse" x1="38.9812" y1="65.1964" x2="44.627" y2="65.1964">
		<stop  offset="0" style="stop-color:#FA856E"/>
		<stop  offset="1" style="stop-color:#B22A46"/>
	</linearGradient>
	<line class="st9" x1="38.98" y1="65.2" x2="44.63" y2="65.2"/>
	<linearGradient id="SVGID_11_" gradientUnits="userSpaceOnUse" x1="54.5101" y1="66.5957" x2="60.1559" y2="66.5957">
		<stop  offset="0" style="stop-color:#FA856E"/>
		<stop  offset="1" style="stop-color:#B22A46"/>
	</linearGradient>
	<line class="st10" x1="54.51" y1="66.6" x2="60.16" y2="66.6"/>
	<linearGradient id="SVGID_12_" gradientUnits="userSpaceOnUse" x1="64.0879" y1="64.3214" x2="69.7337" y2="64.3214">
		<stop  offset="0" style="stop-color:#FA856E"/>
		<stop  offset="1" style="stop-color:#B22A46"/>
	</linearGradient>
	<line class="st11" x1="64.09" y1="64.32" x2="69.73" y2="64.32"/>
	<linearGradient id="SVGID_13_" gradientUnits="userSpaceOnUse" x1="74.5502" y1="59.9185" x2="80.196" y2="59.9185">
		<stop  offset="0" style="stop-color:#FA856E"/>
		<stop  offset="1" style="stop-color:#B22A46"/>
	</linearGradient>
	<line class="st12" x1="74.55" y1="59.92" x2="80.2" y2="59.92"/>
	<linearGradient id="SVGID_14_" gradientUnits="userSpaceOnUse" x1="74.3787" y1="69.2015" x2="80.0245" y2="69.2015">
		<stop  offset="0" style="stop-color:#FA856E"/>
		<stop  offset="1" style="stop-color:#B22A46"/>
	</linearGradient>
	<line class="st13" x1="74.38" y1="69.2" x2="80.02" y2="69.2"/>
	<linearGradient id="SVGID_15_" gradientUnits="userSpaceOnUse" x1="84.244" y1="88.5829" x2="89.8898" y2="88.5829">
		<stop  offset="0" style="stop-color:#FA856E"/>
		<stop  offset="1" style="stop-color:#B22A46"/>
	</linearGradient>
	<line class="st14" x1="84.24" y1="88.58" x2="89.89" y2="88.58"/>
	<g>
		<linearGradient id="SVGID_16_" gradientUnits="userSpaceOnUse" x1="22.0151" y1="174.749" x2="28.4139" y2="174.749">
			<stop  offset="0" style="stop-color:#FA856E"/>
			<stop  offset="1" style="stop-color:#B22A46"/>
		</linearGradient>
		<line class="st15" x1="22.02" y1="174.75" x2="28.41" y2="174.75"/>
		<linearGradient id="SVGID_17_" gradientUnits="userSpaceOnUse" x1="37.5199" y1="174.749" x2="65.207" y2="174.749">
			<stop  offset="0" style="stop-color:#FA856E"/>
			<stop  offset="1" style="stop-color:#B22A46"/>
		</linearGradient>
		<line class="st16" x1="37.52" y1="174.75" x2="65.21" y2="174.75"/>
		<linearGradient id="SVGID_18_" gradientUnits="userSpaceOnUse" x1="171.5861" y1="174.749" x2="177.9849" y2="174.749">
			<stop  offset="0" style="stop-color:#FA856E"/>
			<stop  offset="1" style="stop-color:#B22A46"/>
		</linearGradient>
		<line class="st17" x1="171.59" y1="174.75" x2="177.98" y2="174.75"/>
		<linearGradient id="SVGID_19_" gradientUnits="userSpaceOnUse" x1="136.6592" y1="174.749" x2="164.3463" y2="174.749">
			<stop  offset="0" style="stop-color:#FA856E"/>
			<stop  offset="1" style="stop-color:#B22A46"/>
		</linearGradient>
		<line class="st18" x1="136.66" y1="174.75" x2="164.35" y2="174.75"/>
		<linearGradient id="SVGID_20_" gradientUnits="userSpaceOnUse" x1="70.3753" y1="174.749" x2="76.7741" y2="174.749">
			<stop  offset="0" style="stop-color:#FA856E"/>
			<stop  offset="1" style="stop-color:#B22A46"/>
		</linearGradient>
		<line class="st19" x1="70.38" y1="174.75" x2="76.77" y2="174.75"/>
		<linearGradient id="SVGID_21_" gradientUnits="userSpaceOnUse" x1="85.8801" y1="174.749" x2="122.8629" y2="174.749">
			<stop  offset="0" style="stop-color:#FA856E"/>
			<stop  offset="1" style="stop-color:#B22A46"/>
		</linearGradient>
		<line class="st20" x1="85.88" y1="174.75" x2="122.86" y2="174.75"/>
	</g>
	<g>
		<linearGradient id="SVGID_22_" gradientUnits="userSpaceOnUse" x1="40.7916" y1="97.8813" x2="62.3841" y2="97.8813">
			<stop  offset="0" style="stop-color:#FF8B71"/>
			<stop  offset="0.704" style="stop-color:#C33F50"/>
			<stop  offset="1" style="stop-color:#A81E41"/>
		</linearGradient>
		<path class="st21" d="M40.79,104.06c7.24-5.83,12-9.33,21.59-12.36C52.99,93.22,45.4,98.45,40.79,104.06z"/>
		<linearGradient id="SVGID_23_" gradientUnits="userSpaceOnUse" x1="28.1531" y1="99.0885" x2="74.5738" y2="99.0885">
			<stop  offset="0" style="stop-color:#FF8B71"/>
			<stop  offset="0.704" style="stop-color:#C33F50"/>
			<stop  offset="1" style="stop-color:#A81E41"/>
		</linearGradient>
		<path class="st22" d="M51.36,75.88c-12.82,0-23.21,10.39-23.21,23.21s10.39,23.21,23.21,23.21s23.21-10.39,23.21-23.21
			S64.18,75.88,51.36,75.88z M60.11,95.07c0.81,0.09,1.63,0.19,2.44,0.28c0.03,0.07,0.05,0.15,0.08,0.22
			c-0.5,0.38-0.96,0.81-1.49,1.14c-1.43,0.88-2.41,2.61-4.75,2c0.34,0.35,0.53,0.54,0.65,0.67c-1.91,1.82-4.34,2.22-7.05,1.9
			c0.44,0.18,0.84,0.23,1.24,0.32c0.37,0.09,0.74,0.24,1.1,0.36c-2.24,1.41-4.5,2.54-7.46,2.13c0.24,0.24,0.39,0.39,0.73,0.73
			c-1.74,0.38-3.31,0.8-4.92,1.05c-1.15,0.18-2.13,0.57-2.95,1.33c-0.5,0.47-1.01,0.93-1.53,1.36c-0.5,0.42-1.04,0.81-1.56,1.21
			c-0.05-0.06-0.1-0.11-0.15-0.17c0.41-0.5,0.8-1.03,1.25-1.48c1.42-1.43,2.77-2.9,3-5.2c0.03-0.32,0.2-0.6,0.31-0.89
			c0.03-0.07,0.09-0.12,0.13-0.18c0.13,0.12,0.25,0.23,0.47,0.43c0.15-0.51,0.28-0.94,0.46-1.54c0.1,0.52,0.17,0.86,0.24,1.21
			c0.3-1.01,0.12-2.2,0.99-2.82c-0.08,0.75-0.17,1.55-0.26,2.35c0.92-3.53,3.58-5.25,6.25-7.09c0.12,0.56,0.21,0.95,0.29,1.28
			c0.23-0.6,0.3-1.34,0.7-1.72c1.33-1.31,3.11-1.87,5.02-2.49c-0.23,0.61-0.4,1.06-0.57,1.51c2.08-1.7,4.55-2.57,7.15-3.18
			c2.63-0.61,5.32-0.94,8.39,0.42C66.07,92.8,63.33,94.3,60.11,95.07z"/>
	</g>
</g>
</svg>
